<svg xmlns="http://www.w3.org/2000/svg" viewBox="0 0 400 300" width="406" height="306" class="illustration styles_illustrationTablet__1DWOa"><g id="_409_fast_food_flatline" data-name="#409_fast_food_flatline"><path d="M86.93,66s87.26-17.2,95.12-17.86c1.27,5.59,18.36,5.71,18.36,5.71S99.14,86.52,92.43,83.36,86.93,66,86.93,66Z" fill="#231f20"></path><path d="M93.83,84a4,4,0,0,1-1.62-.23C85.26,80.54,86.38,66.57,86.43,66a.5.5,0,0,1,.4-.45c3.56-.7,87.38-17.21,95.18-17.87a.5.5,0,0,1,.53.39c1,4.26,13.23,5.28,17.87,5.32a.49.49,0,0,1,.49.42.5.5,0,0,1-.34.55C196.62,55.61,108.28,84,93.83,84ZM87.4,66.44c-.13,2.23-.49,13.77,5.24,16.47A3.5,3.5,0,0,0,94,83.1c11.15,0,75.28-19.78,103.56-28.84-4.86-.3-14.34-1.42-15.87-5.56C172.11,49.78,93.56,65.22,87.4,66.44Z" fill="#231f20"></path><path d="M86.93,66S74,195.09,78.61,198.59s32.72,5,32.72,5c0-.2-3.52-96.11-11.87-136.14C95,70.92,88.69,69.7,86.93,66Z" fill="#d1d3d4"></path><path d="M111.35,204.09h0c-1.16-.06-28.32-1.54-33-5.1-.84-.64-3.1-2.36,2.24-68,2.62-32.33,5.86-64.66,5.89-65a.5.5,0,0,1,.41-.44.48.48,0,0,1,.54.28,5.89,5.89,0,0,0,4.09,3,9.24,9.24,0,0,0,7.69-1.73.5.5,0,0,1,.47-.07.48.48,0,0,1,.32.37c7.26,34.82,10.89,112.18,11.83,135.06,0,.69,0,1.08,0,1.14a.41.41,0,0,1-.12.39A.44.44,0,0,1,111.35,204.09ZM87.28,67.47C78,160.68,77.17,196.73,78.91,198.2c4.09,3.11,28,4.63,31.9,4.86,0-.16,0-.35,0-.6-.94-22.7-4.52-99.06-11.66-134.16a10.2,10.2,0,0,1-7.89,1.45A7.45,7.45,0,0,1,87.28,67.47Z" fill="#231f20"></path><path d="M217.21,204.77S206,55.33,200.41,53.87,98.8,65,99.46,68.64,112,202,111.33,204.77,217.21,204.77,217.21,204.77Z" fill="#fff"></path><path d="M140.34,206.51c-16.18,0-28.57-.33-29.36-1.31a.6.6,0,0,1-.13-.54C111.51,201,99.15,69.73,99,68.72a.83.83,0,0,1,.31-.77c2.93-2.72,39.19-7.88,50.24-9.39,22.51-3.09,48-6,51-5.18,1.06.28,3.86,1,10.89,76.44,3.45,37.12,6.26,74.54,6.29,74.92a.5.5,0,0,1-.13.37.53.53,0,0,1-.36.17C206.29,205.56,167.85,206.51,140.34,206.51Zm-28.49-1.91c4.1,1.66,64.4.74,104.82-.31C208.59,96.45,202.44,55.53,200.26,54.34c-2.43-.62-25.44,1.74-51.26,5.3-32.25,4.44-47.79,7.72-49,9C100.48,73.19,112.14,197.13,111.85,204.6ZM100,68.55h0Z" fill="#231f20"></path><path d="M152.38,182.05s-19,13.82-28.26,14.75-29.65,17.52-25.05,17.14,15.06,1.24,26.32,9.66,28.63,28.21,43,21S192.14,230.7,202,238s37.84,16.49,54.52,13.19,12.66-15.52,40.06-27.55c10.84-4.75,18.52-7.66,25.82-17A42.19,42.19,0,0,0,295.67,202c-2.37.38-4.86.95-7.1.11-1.9-.71-3.29-2.32-4.9-3.56-8.64-6.67-21.91-1.91-31.51-7.11-4.76-2.59-7.95-7.28-12-10.91-12-10.82-32.66-13.39-47.46-7.73C179.29,177.94,166.68,180.08,152.38,182.05Z" fill="#fff"></path><path d="M248.78,252.33c-16.53,0-38.39-7.56-47.08-14-8.39-6.17-16.59-1.9-27.94,4-1.64.85-3.34,1.74-5.12,2.63-11.81,6-25.31-5.61-36.15-14.9-2.65-2.27-5.16-4.42-7.4-6.1-11.15-8.33-21.58-9.93-26-9.56-1.06.09-1.19-.57-1.2-.77-.27-2.86,17.82-16.53,26.16-17.37,9-.9,27.83-14.51,28-14.65a.43.43,0,0,1,.22-.09c13.3-1.84,26.38-3.92,40.24-9.23,15.74-6,36.36-2.66,48,7.83,1.38,1.25,2.68,2.63,3.94,4,2.39,2.55,4.86,5.19,7.93,6.86,4.37,2.37,9.64,2.63,14.73,2.89,5.95.29,12.1.6,16.85,4.27.48.37.94.77,1.4,1.17a11.35,11.35,0,0,0,3.36,2.31c1.87.7,4,.34,6.05,0l.8-.14a42.57,42.57,0,0,1,27,4.68.51.51,0,0,1,.25.34.49.49,0,0,1-.1.41c-6.89,8.79-14,11.9-23.89,16.2l-2.12.93c-14.25,6.26-19.94,12.56-24.51,17.62-4.22,4.67-7.55,8.36-15.66,10A40.07,40.07,0,0,1,248.78,252.33Zm-55.85-18a15.32,15.32,0,0,1,9.36,3.25c10,7.38,37.78,16.33,54.12,13.1,7.78-1.54,11-5.12,15.11-9.65,4.63-5.13,10.4-11.52,24.85-17.87l2.12-.92c9.56-4.17,16.51-7.2,23.14-15.44a41.54,41.54,0,0,0-25.88-4.29l-.79.13c-2.19.37-4.45.75-6.57,0a12.5,12.5,0,0,1-3.67-2.5c-.44-.39-.89-.78-1.35-1.13-4.5-3.47-10.22-3.76-16.29-4.07-5.2-.26-10.59-.53-15.15-3-3.22-1.75-5.75-4.45-8.19-7.06-1.24-1.33-2.53-2.7-3.88-3.92-11.36-10.25-31.54-13.53-47-7.63-13.92,5.32-27,7.42-40.34,9.26-1.67,1.21-19.39,13.86-28.4,14.77-8.26.82-24.5,13.89-25.24,16.15H99c1.25-.1,12.64-.72,26.66,9.76,2.27,1.7,4.79,3.86,7.45,6.14,10.62,9.1,23.83,20.42,35.05,14.77q2.67-1.35,5.11-2.63C180.87,237.54,187.07,234.31,192.93,234.31Z" fill="#231f20"></path><path d="M251.76,171.91s0,7.76,2.82,10.59,17.88,8,31.75,7.29,22.11-4.47,24.46-7.29,1.73-10.59,1.73-10.59Z" fill="#fff"></path><path d="M283.73,190.35c-13.06,0-26.66-4.66-29.5-7.5s-3-10.61-3-10.94a.5.5,0,0,1,.5-.5h60.76a.49.49,0,0,1,.49.46c0,.33.62,8-1.83,10.95-2.69,3.22-11.41,6.78-24.82,7.47C285.49,190.33,284.61,190.35,283.73,190.35Zm-31.46-17.94c.06,1.73.42,7.49,2.66,9.73,2.85,2.85,18.05,7.82,31.38,7.15,13-.67,21.63-4.15,24.1-7.11,1.88-2.26,1.72-8.09,1.64-9.77Z" fill="#231f20"></path><path d="M315.73,79.25V174.5s-10.35,8-31.05,8a94.06,94.06,0,0,1-36-7.06s0-8.41,0-20.23c0-17.09.06-41.29.05-57.52,0-9.53,0-16.29-.09-17.27-.25-3.76,4.46-8.7,4.46-8.7V65.49h56.92V72.9S315.73,76.42,315.73,79.25Z" fill="#b64444"></path><path d="M284.68,183a95.46,95.46,0,0,1-36.18-7.11.5.5,0,0,1-.29-.46s0-8.4,0-20.22c0-15.45.07-40,.05-57.52,0-13.13-.05-16.62-.09-17.23-.24-3.61,3.66-8,4.46-8.93v-6a.5.5,0,0,1,.5-.5h56.92a.5.5,0,0,1,.5.5v7.14c1.19.77,5.64,3.84,5.64,6.62V174.5a.49.49,0,0,1-.2.4C315.93,175,305.31,183,284.68,183Zm-35.47-7.89A95.17,95.17,0,0,0,284.68,182c18.75,0,29-6.69,30.55-7.75v-95c0-2.1-3.9-5-5.41-5.93a.5.5,0,0,1-.23-.42V66H253.67v5.73a.5.5,0,0,1-.14.35c0,.05-4.55,4.82-4.32,8.32.06.92.09,6.74.09,17.3,0,17.48,0,42.08-.05,57.52C249.24,165.67,249.21,173.46,249.21,175.11Zm66.52-.61h0Z" fill="#231f20"></path><ellipse cx="281.63" cy="65.49" rx="28.46" ry="7.41" fill="#fff"></ellipse><path d="M281.63,73.4c-14.24,0-29-3-29-7.91s14.72-7.91,29-7.91,29,3,29,7.91S295.86,73.4,281.63,73.4Zm0-14.82c-16.73,0-28,3.57-28,6.91s11.23,6.91,28,6.91,28-3.58,28-6.91S298.35,58.58,281.63,58.58Z" fill="#231f20"></path><path d="M270.49,66.59a4.23,4.23,0,0,1-2.39-.48.81.81,0,0,1-.28-.7c.12-1.2,3.92-3.4,6.18-4.6a.6.6,0,0,1,.3-.07c1.17.09,5.06.47,5.68,1.91A1.29,1.29,0,0,1,279.7,64c-1.7,2.07-5.27,2.22-5.42,2.23A25.78,25.78,0,0,1,270.49,66.59ZM269,65.36a16.84,16.84,0,0,0,5.13-.22c.1,0,3.29-.15,4.68-1.83.06-.07.13-.18.11-.22-.23-.54-2.56-1.07-4.58-1.23A27,27,0,0,0,269,65.36Z" fill="#d1d3d4"></path><path d="M284.47,67.64c-4.16,0-7.29-1.49-7.29-3.45s3.13-3.45,7.29-3.45,7.3,1.48,7.3,3.45S288.63,67.64,284.47,67.64Zm0-5.79c-3.54,0-6.19,1.23-6.19,2.34s2.65,2.34,6.19,2.34,6.19-1.24,6.19-2.34S288,61.85,284.47,61.85Z" fill="#d1d3d4"></path><path d="M315.73,97.9v57.62c-9.3,2.3-21.72,4.71-32.86,4.71-11.65,0-24.72-2.64-34.12-5,0-17.09.06-41.29.05-57.52a193.61,193.61,0,0,0,34.07,3.4A192.09,192.09,0,0,0,315.73,97.9Z" fill="#231f20"></path><path d="M282.87,160.73c-11.87,0-25.18-2.74-34.25-5a.5.5,0,0,1-.37-.49c0-15.45.07-40,.05-57.52a.53.53,0,0,1,.18-.39.55.55,0,0,1,.41-.11,193.18,193.18,0,0,0,34,3.4,193.26,193.26,0,0,0,32.77-3.18.47.47,0,0,1,.41.11.49.49,0,0,1,.18.38v57.62a.51.51,0,0,1-.38.49C307.14,158.16,294.35,160.73,282.87,160.73Zm-33.62-5.91c9,2.26,22,4.91,33.62,4.91,11.22,0,23.72-2.48,32.36-4.6V98.5a192.81,192.81,0,0,1-32.36,3.09,194.84,194.84,0,0,1-33.57-3.3C249.31,115.59,249.28,139.53,249.25,154.82Z" fill="#231f20"></path><path d="M156.45,195.87s-1.87,2.86-2.15,9.68,2.91,8.54,6.09,11.72,31.31,9.06,50.9,8.08,42.42-4,50.85-12.51c4.8-4.87,3.51-22.5-1.88-23S156.45,195.87,156.45,195.87Z" fill="#fff"></path><path d="M206.92,226c-18.66,0-43.66-5.1-46.88-8.32-.48-.47-.95-.91-1.41-1.34-2.61-2.43-5.07-4.73-4.83-10.76.28-6.88,2.16-9.81,2.24-9.93a.48.48,0,0,1,.38-.23c4-.26,98.52-6.51,103.89-6,1.65.15,3,1.63,4,4.27,2.13,5.83,1.71,16-1.81,19.57-7,7.05-24.18,11.31-51.18,12.66C209.91,225.92,208.43,226,206.92,226Zm-50.17-29.6c-.4.77-1.72,3.65-1.95,9.22s1.87,7.52,4.52,10c.46.43.94.88,1.42,1.36,3,3.05,30.76,8.92,50.53,7.93,26.36-1.32,43.83-5.6,50.52-12.37,3.22-3.27,3.57-13.07,1.58-18.51-.81-2.22-1.93-3.51-3.15-3.62C255.06,189.87,162.46,196,156.75,196.35Z" fill="#231f20"></path><path d="M159,185.77c-2.12,0-3.72,3.07-4.87,4.54a37.18,37.18,0,0,1-6.76,6.68c1.79.86,3.66,1.79,4.77,3.43s1.13,4.22-.51,5.34a13.66,13.66,0,0,1,8.19-.29c2.61.89,3.89,2.95,6.58,3.56a42.1,42.1,0,0,1,9.79,3,8.45,8.45,0,0,1,8.35-6.31,8.25,8.25,0,0,1,7.51-1.49,5.86,5.86,0,0,1,.9-5,17.49,17.49,0,0,1,3.66-3.68l-30.36-11.37c-2.12-.8-4.63-1.55-6.51-.31l.93.51" fill="#b64444"></path><path d="M176.23,212.51a.59.59,0,0,1-.23,0,38,38,0,0,0-8.81-2.75l-.86-.19a10.15,10.15,0,0,1-3.72-1.91A10.54,10.54,0,0,0,159.7,206c-2.16-.74-4.74-.64-7.88.29a.5.5,0,0,1-.43-.89c1.38-.95,1.34-3.23.38-4.64-1.07-1.58-2.93-2.48-4.58-3.27a.53.53,0,0,1-.28-.4.51.51,0,0,1,.2-.45,36.83,36.83,0,0,0,6.67-6.59c.22-.28.46-.63.72-1,1.15-1.66,2.58-3.71,4.53-3.74h0a.49.49,0,0,1,.5.49.52.52,0,0,1-.49.51c-1.45,0-2.71,1.84-3.73,3.31-.27.38-.52.74-.75,1a37.65,37.65,0,0,1-6.22,6.27,10.76,10.76,0,0,1,4.25,3.25,5,5,0,0,1,.46,4.74,12.68,12.68,0,0,1,7,.12,12.43,12.43,0,0,1,3.18,1.79,8.88,8.88,0,0,0,3.35,1.75l.86.19a40.69,40.69,0,0,1,8.49,2.57,9,9,0,0,1,8.51-6.11,8.74,8.74,0,0,1,7-1.66,6.65,6.65,0,0,1,1.16-4.55,15.64,15.64,0,0,1,3.1-3.24l-29.55-11.07c-1.85-.69-3.73-1.23-5.25-.74l.08,0a.5.5,0,0,1-.48.88l-.93-.51a.5.5,0,0,1,0-.85c2-1.33,4.53-.66,7,.25l30.36,11.37a.49.49,0,0,1,.14.85,17,17,0,0,0-3.56,3.57,5.37,5.37,0,0,0-.85,4.53.49.49,0,0,1-.12.5.47.47,0,0,1-.5.13,7.79,7.79,0,0,0-7.05,1.4.51.51,0,0,1-.34.11,8,8,0,0,0-7.84,5.92.49.49,0,0,1-.27.34A.54.54,0,0,1,176.23,212.51Z" fill="#231f20"></path><path d="M219.37,195.32c-8.71.05-17.53,0-26.21.59-3.23.22-4.15,1.94-5.47,4.88-.68,1.51-2.76,5.77-1,7.22.6.51,3.17,0,4,.11a14.11,14.11,0,0,1,3.87,1.08c.91.4,5.67,4.77,5.78,4.75a30.75,30.75,0,0,1,15.77,1.84,10.08,10.08,0,0,1,13.43-7.45,10.85,10.85,0,0,1,3.88-7.05c-3.49-.6-5.71-4.2-9-5.41A14.21,14.21,0,0,0,219.37,195.32Z" fill="#b64444"></path><path d="M216.1,216.29a.39.39,0,0,1-.18,0,30.11,30.11,0,0,0-15.51-1.8c-.27,0-.28,0-1.83-1.33a48.37,48.37,0,0,0-4.23-3.47,13.82,13.82,0,0,0-3.73-1,9.07,9.07,0,0,0-1.29,0c-1.47.11-2.47.15-3-.27-1.94-1.63-.11-5.63.76-7.55l.12-.26c1.38-3.06,2.4-4.94,5.89-5.18,7.34-.51,14.87-.54,22.14-.57l4.11,0h0a14.9,14.9,0,0,1,5.17.59,15.13,15.13,0,0,1,4.17,2.67c1.54,1.24,3,2.41,4.78,2.72a.49.49,0,0,1,.4.37.48.48,0,0,1-.17.51,10.39,10.39,0,0,0-3.7,6.72.47.47,0,0,1-.23.37.49.49,0,0,1-.44,0,9.57,9.57,0,0,0-12.76,7.08.51.51,0,0,1-.25.34A.53.53,0,0,1,216.1,216.29Zm-11.31-3.17a31.08,31.08,0,0,1,11,2,10.56,10.56,0,0,1,13.38-7.44,11.34,11.34,0,0,1,3.25-6.13,14.16,14.16,0,0,1-4.29-2.69,14.32,14.32,0,0,0-3.88-2.51,14,14,0,0,0-4.83-.53l-4.1,0c-7.26,0-14.77.06-22.08.57-2.94.2-3.75,1.71-5.05,4.59l-.12.26c-.65,1.43-2.38,5.24-1,6.37a6.57,6.57,0,0,0,2.26,0,8,8,0,0,1,1.5,0,14.29,14.29,0,0,1,4,1.11,36.55,36.55,0,0,1,4.48,3.63l1.23,1.06A31.53,31.53,0,0,1,204.79,213.12Z" fill="#231f20"></path><path d="M251.85,191.64c-4.31,1.77-8.41,2.37-11.76,5.46-1,.9-11.69,7.39-12.52,5.86.81,1.5,3,1.25,4.56,2,1,.48,1.69,1.5,2.72,1.92.75.31,1.56,0,2.28.3s5.24,2.9,4.63,3.85A6.46,6.46,0,0,1,248,208.5a12.83,12.83,0,0,1,6.31,3.11c.33-2.88.72-5.93,2.55-8.18a15.35,15.35,0,0,1,3.42-2.84l8.5-5.75a6.91,6.91,0,0,1-1.52-9.55Z" fill="#b64444"></path><path d="M254.34,212.11A.51.51,0,0,1,254,212a12.32,12.32,0,0,0-6.07-3,6,6,0,0,0-5.78,2.3h0a.5.5,0,0,1-.84-.55c-.1-.59-3.55-2.81-4.38-3.11a2.68,2.68,0,0,0-.92-.1,3.66,3.66,0,0,1-1.38-.21,5.81,5.81,0,0,1-1.57-1.07,5.66,5.66,0,0,0-1.17-.86,8,8,0,0,0-1.7-.5c-1.21-.26-2.46-.53-3.09-1.71h0a.5.5,0,0,1,.88-.47h0c1.12.51,10.37-4.72,11.74-6,2.47-2.28,5.3-3.23,8.3-4.25,1.18-.39,2.39-.8,3.61-1.3l15.44-6.35a.5.5,0,0,1,.59.77,6.38,6.38,0,0,0,1.4,8.82.5.5,0,0,1,0,.83l-8.5,5.75a14.69,14.69,0,0,0-3.31,2.75c-1.8,2.2-2.15,5.37-2.44,7.92a.51.51,0,0,1-.31.41A.58.58,0,0,1,254.34,212.11Zm-7.29-4.18a9.08,9.08,0,0,1,1,.07,12.58,12.58,0,0,1,5.86,2.67c.3-2.5.79-5.38,2.55-7.55a15.43,15.43,0,0,1,3.53-2.94l7.93-5.37a7.19,7.19,0,0,1-2.35-4.36,7.36,7.36,0,0,1,.5-4.13L252,192.1h0c-1.25.51-2.48.93-3.67,1.33-2.89,1-5.63,1.9-7.94,4-.73.68-8,5.22-11.39,6.09a9,9,0,0,0,1.39.37,8.51,8.51,0,0,1,1.92.58,5.92,5.92,0,0,1,1.4,1,4.91,4.91,0,0,0,1.29.91,3,3,0,0,0,1,.13,3.44,3.44,0,0,1,1.25.16c.36.13,3.59,1.86,4.66,3.27A7,7,0,0,1,247.05,207.93Zm4.8-16.29h0Z" fill="#231f20"></path><path d="M165.51,163.29c-6.43,2.24-13.88,8.51-13.74,15.76a10.71,10.71,0,0,0,1,5.11,1.72,1.72,0,0,1,.38,1.26,1.48,1.48,0,0,1-.44.59c-4.29,4.25,1,11,5.1,13.47,4.68,2.85,10.27,3.8,15.75,4.19,17.49,1.26,35.33,2.36,52.89,1.72,9.42-.34,19.3-2,27.81-6.22a27.07,27.07,0,0,0,10.43-8.34c2.56-3.66,4.25-9.34,1.65-13.45-.59-.92-1.64-1.52-2.06-2.53a6.45,6.45,0,0,1,0-3c.52-6.43-6.95-11.56-12.36-13.09a43.49,43.49,0,0,0-9.46-1.24c-9.16-.51-18.37-1-27.48.08-10.82,1.3-21.4,4.87-32.3,4.85C176.89,162.4,170.94,161.4,165.51,163.29Z" fill="#231f20"></path><path d="M215.77,206.08c-14.35,0-28.65-.93-42.24-1.91-4.73-.34-10.83-1.13-16-4.27-3-1.83-6.45-5.74-6.88-9.39a5.62,5.62,0,0,1,1.69-4.85,1.12,1.12,0,0,0,.31-.39c.06-.19-.11-.48-.28-.77l-.05-.1a11,11,0,0,1-1.08-5.34c-.14-7.31,7.15-13.83,14.07-16.24h0c4.15-1.44,8.61-1.24,12.93-1,1.44.06,2.93.13,4.38.14h.13c6.59,0,13.19-1.35,19.58-2.65,4.09-.83,8.32-1.69,12.53-2.2,9.18-1.11,18.53-.58,27.57-.07a43.39,43.39,0,0,1,9.57,1.25c5.61,1.59,13.26,6.86,12.72,13.61,0,.22-.05.45-.08.68a4.27,4.27,0,0,0,.09,2.12,4.32,4.32,0,0,0,1,1.3,6.94,6.94,0,0,1,1,1.15c2.67,4.22,1.09,10.07-1.66,14-2.33,3.34-5.81,6.12-10.62,8.5-7.64,3.77-17.06,5.88-28,6.27C222.92,206,219.34,206.08,215.77,206.08Zm-42-43.44a24.27,24.27,0,0,0-8.06,1.13h0c-6.59,2.29-13.53,8.43-13.4,15.27a10.24,10.24,0,0,0,.94,4.87l.06.09a1.6,1.6,0,0,1-.19,2.37,4.66,4.66,0,0,0-1.41,4c.39,3.32,3.59,6.94,6.41,8.65,5,3,10.9,3.79,15.52,4.12,17,1.23,35,2.37,52.85,1.72,10.8-.39,20.08-2.46,27.6-6.17,4.65-2.3,8-5,10.24-8.18,2.56-3.66,4.06-9.07,1.63-12.89a5.91,5.91,0,0,0-.85-1,5,5,0,0,1-1.24-1.63,5.19,5.19,0,0,1-.15-2.62c0-.22.05-.43.07-.64.49-6.11-6.87-11.11-12-12.57A43.51,43.51,0,0,0,242.4,158c-9-.5-18.29-1-27.39.07-4.17.51-8.38,1.36-12.45,2.19-6.44,1.31-13.09,2.67-19.78,2.67h-.13c-1.47,0-3-.08-4.43-.14S175.23,162.64,173.73,162.64Zm-8.22.65h0Z" fill="#231f20"></path><path d="M204.5,193.58a205.85,205.85,0,0,1-49.83-6.43.5.5,0,0,1,.28-1c.65.19,65.64,18.28,105-7.2a.5.5,0,0,1,.69.15.49.49,0,0,1-.15.69C244.11,190.46,223.3,193.58,204.5,193.58Z" fill="#fff"></path><path d="M168.28,176s0,17.18,1.84,19.38,5.51-.19,5.69-3.31-1.84-8.26,0-7.89,2.2,6.08,5.51,1.94,2.29-.93,6.06-3,8.44-7.08,8.44-7.08S173.61,172.39,168.28,176Z" fill="#b64444"></path><path d="M171.91,196.71a2.75,2.75,0,0,1-2.17-1c-1.9-2.28-2-17.92-2-19.7a.52.52,0,0,1,.22-.41c5.43-3.66,27-.23,27.9-.08a.52.52,0,0,1,.4.33.53.53,0,0,1-.11.51c-.2.2-4.77,5-8.57,7.16a4.86,4.86,0,0,1-3.21.85c-.61-.06-1-.09-2.7,2.07-1,1.2-1.74,1.75-2.58,1.68-1-.06-1.64-1.09-2.19-2-.38-.64-.81-1.36-1.23-1.44-.34.26,0,2,.16,3.2a20.35,20.35,0,0,1,.44,4.23,5.13,5.13,0,0,1-3.34,4.46A3.42,3.42,0,0,1,171.91,196.71Zm-3.13-20.46c0,6.84.48,17.28,1.72,18.78a1.9,1.9,0,0,0,2.15.55,4.16,4.16,0,0,0,2.66-3.57,19.31,19.31,0,0,0-.42-4c-.39-2.22-.57-3.51,0-4.1a1,1,0,0,1,1-.25c.85.17,1.38,1.05,1.89,1.9s.89,1.49,1.4,1.53c.29,0,.84-.19,1.73-1.31,1.87-2.36,2.5-2.55,3.57-2.45a3.94,3.94,0,0,0,2.63-.72,41.75,41.75,0,0,0,7.65-6.29C190.56,175.7,173.59,173.44,168.78,176.25Z" fill="#231f20"></path><path d="M254.15,160.84c-5.89-3-13.24-1.76-18.48,2s-8,7.37-8.09,14.12c0,2.76.48,7.15,3.11,8.63,1.14.65,2.69.09,3.8,1.15s.52,2,1.22,3.18,2.2.31,3-.56,1.93-2,3-1.41a1.94,1.94,0,0,1,.84,1.2c.45,1.52,0,3.16,0,4.75s.79,3.45,2.36,3.7a3.09,3.09,0,0,0,3.07-2.19,15.07,15.07,0,0,0,.54-4,11.11,11.11,0,0,1,4.83-8.53,6.56,6.56,0,0,0,1.71-1.22c1.66-1.94-.42-5,.41-7.43a10.92,10.92,0,0,1,1.87-2.69,6.89,6.89,0,0,0,.89-6.86A8.63,8.63,0,0,0,254.15,160.84Z" fill="#b64444"></path><path d="M245.27,198.13a2.06,2.06,0,0,1-.42,0c-1.88-.3-2.76-2.38-2.78-4.18,0-.56,0-1.12.08-1.66a8.08,8.08,0,0,0-.11-3,1.48,1.48,0,0,0-.59-.9c-.7-.37-1.59.45-2.37,1.3a3.54,3.54,0,0,1-2.62,1.22,1.48,1.48,0,0,1-1.17-.74,3.84,3.84,0,0,1-.51-1.6,2.25,2.25,0,0,0-.64-1.47,2.86,2.86,0,0,0-1.88-.62,4.56,4.56,0,0,1-1.82-.45c-3.09-1.74-3.38-6.93-3.36-9.07.06-7.17,3.22-10.88,8.3-14.53,5.77-4.14,13.22-4.94,19-2a9,9,0,0,1,4.33,4.05,7.32,7.32,0,0,1-.94,7.37c-.19.26-.4.51-.61.76a5.79,5.79,0,0,0-1.18,1.79,6.72,6.72,0,0,0,0,3.18c.26,1.55.53,3.16-.55,4.42A5.18,5.18,0,0,1,254,183l-.38.23a10.55,10.55,0,0,0-4.59,8.15c0,.34,0,.68-.07,1a10.3,10.3,0,0,1-.5,3.14A3.7,3.7,0,0,1,245.27,198.13Zm-4.18-10.83a1.73,1.73,0,0,1,.83.21A2.38,2.38,0,0,1,243,189a8.92,8.92,0,0,1,.15,3.33c0,.51-.09,1-.08,1.56,0,1.45.69,3,1.94,3.21a2.58,2.58,0,0,0,2.52-1.87,9.72,9.72,0,0,0,.45-2.85c0-.35,0-.7.07-1a11.55,11.55,0,0,1,5-8.91l.41-.24a4.81,4.81,0,0,0,1.2-.87c.77-.91.56-2.16.32-3.6a7.36,7.36,0,0,1,0-3.67,6.83,6.83,0,0,1,1.36-2.11c.2-.23.4-.47.58-.72a6.41,6.41,0,0,0,.84-6.34,8,8,0,0,0-3.88-3.58h0c-5.35-2.7-12.57-1.91-17.95,2-5,3.55-7.83,6.94-7.89,13.71,0,1.54.15,6.67,2.85,8.2a3.71,3.71,0,0,0,1.43.32,3.8,3.8,0,0,1,2.48.9,3.2,3.2,0,0,1,.93,2,3.1,3.1,0,0,0,.37,1.24.49.49,0,0,0,.42.25,2.52,2.52,0,0,0,1.79-.89C238.85,188.46,239.92,187.3,241.09,187.3Z" fill="#231f20"></path><path d="M180.4,158.83s-23.83,12.54-25.59,15.85,1.54,2.93,2.83,2.75,43.14,3.49,59.48,18c0,0,35.46-27.71,41.08-30.11S182.05,159.14,180.4,158.83Z" fill="#b64444"></path><path d="M217.12,195.92a.46.46,0,0,1-.33-.13c-16-14.16-57.2-18-59.09-17.87-1.21.18-2.92.29-3.62-.7-.45-.66-.36-1.56.29-2.78,1.78-3.34,23.34-14.76,25.8-16.05a.51.51,0,0,1,.32,0c.38.07,5.08.33,11,.66,56.36,3.12,67.18,4.5,67.44,6,0,.19,0,.56-.57.81-5.5,2.35-40.62,29.77-41,30A.45.45,0,0,1,217.12,195.92Zm-59.3-19c3.85,0,43.12,3.88,59.32,17.85,3.7-2.89,33.86-26.35,40.4-29.7-5.68-1.73-49.21-4.14-66.07-5.07-6.76-.38-10.12-.57-11-.65-6.7,3.52-23.87,13-25.25,15.56-.43.82-.56,1.43-.35,1.73s.82.56,2.66.29Z" fill="#231f20"></path><ellipse cx="174.14" cy="164.94" rx="21.01" ry="11.11" fill="#b64444"></ellipse><path d="M174.14,176.55c-11.86,0-21.51-5.21-21.51-11.61s9.65-11.61,21.51-11.61,21.51,5.2,21.51,11.61S186,176.55,174.14,176.55Zm0-22.22c-11.31,0-20.51,4.75-20.51,10.61s9.2,10.61,20.51,10.61,20.51-4.76,20.51-10.61S185.45,154.33,174.14,154.33Z" fill="#231f20"></path><ellipse cx="242.9" cy="162.9" rx="21.01" ry="11.11" fill="#b64444"></ellipse><path d="M242.9,174.51c-11.86,0-21.51-5.21-21.51-11.61s9.65-11.61,21.51-11.61,21.51,5.21,21.51,11.61S254.76,174.51,242.9,174.51Zm0-22.22c-11.31,0-20.51,4.76-20.51,10.61s9.2,10.61,20.51,10.61,20.51-4.76,20.51-10.61S254.21,152.29,242.9,152.29Z" fill="#231f20"></path><ellipse cx="211.38" cy="170.65" rx="15.47" ry="8.76" fill="#b64444"></ellipse><path d="M211.38,179.91c-8.81,0-16-4.15-16-9.26s7.16-9.26,16-9.26,16,4.15,16,9.26S220.19,179.91,211.38,179.91Zm0-17.52c-8.25,0-15,3.7-15,8.26s6.72,8.26,15,8.26,15-3.7,15-8.26S219.63,162.39,211.38,162.39Z" fill="#231f20"></path><ellipse cx="211.29" cy="167.28" rx="15.47" ry="8.76" fill="#fff"></ellipse><path d="M211.29,176.55c-8.8,0-16-4.16-16-9.27s7.17-9.26,16-9.26,16,4.15,16,9.26S220.1,176.55,211.29,176.55Zm0-17.53c-8.25,0-15,3.71-15,8.26s6.72,8.27,15,8.27,15-3.71,15-8.27S219.55,159,211.29,159Z" fill="#231f20"></path><ellipse cx="175.82" cy="160.87" rx="21.01" ry="11.11" fill="#fff"></ellipse><path d="M175.82,172.48c-11.86,0-21.51-5.21-21.51-11.61s9.65-11.61,21.51-11.61,21.51,5.2,21.51,11.61S187.68,172.48,175.82,172.48Zm0-22.22c-11.31,0-20.51,4.76-20.51,10.61s9.2,10.61,20.51,10.61,20.51-4.76,20.51-10.61S187.13,150.26,175.82,150.26Z" fill="#231f20"></path><ellipse cx="241.13" cy="158.83" rx="21.01" ry="11.11" fill="#fff"></ellipse><path d="M241.13,170.44c-11.86,0-21.51-5.21-21.51-11.61s9.65-11.61,21.51-11.61,21.51,5.21,21.51,11.61S253,170.44,241.13,170.44Zm0-22.22c-11.3,0-20.51,4.76-20.51,10.61s9.21,10.61,20.51,10.61,20.51-4.76,20.51-10.61S252.44,148.22,241.13,148.22Z" fill="#231f20"></path><path d="M263.82,151.18c0,13.48-25,16.52-55.88,16.52s-55.88-3-55.88-16.52,25-32.32,55.88-32.32S263.82,137.69,263.82,151.18Z" fill="#fff"></path><path d="M207.94,168.2c-39,0-56.38-5.25-56.38-17,0-14.47,26.54-32.82,56.38-32.82a75.23,75.23,0,0,1,39.78,11.18c10.24,6.47,16.6,14.76,16.6,21.64C264.32,163,246.93,168.2,207.94,168.2Zm0-48.84c-31.6,0-55.38,19.3-55.38,31.82,0,14.2,29.6,16,55.38,16s55.38-1.82,55.38-16C263.32,138.66,239.54,119.36,207.94,119.36Z" fill="#231f20"></path><path d="M186.83,151.18a.55.55,0,0,1-.52-.36.54.54,0,0,1,.33-.71l5.5-2a.54.54,0,0,1,.71.33.54.54,0,0,1-.33.7l-5.5,2A.46.46,0,0,1,186.83,151.18Z" fill="#d1d3d4"></path><path d="M207.94,146.4a.57.57,0,0,1-.38-.15l-5.88-5.69a.56.56,0,0,1,.77-.8l5.88,5.69a.56.56,0,0,1,0,.79A.55.55,0,0,1,207.94,146.4Z" fill="#d1d3d4"></path><path d="M181.32,143.56a.57.57,0,0,1-.18,0l-5.5-1.93a.55.55,0,0,1-.34-.7.54.54,0,0,1,.7-.34l5.5,1.92a.56.56,0,0,1,.34.71A.55.55,0,0,1,181.32,143.56Z" fill="#d1d3d4"></path><path d="M205,159a.49.49,0,0,1-.48-.39.5.5,0,0,1,.38-.6l7.34-1.6a.5.5,0,0,1,.21,1L205.11,159Z" fill="#fff"></path><path d="M226.76,143.83a.52.52,0,0,1-.21,0l-7.62-3.12a.55.55,0,1,1,.42-1l7.62,3.12a.55.55,0,0,1,.3.72A.53.53,0,0,1,226.76,143.83Z" fill="#d1d3d4"></path><path d="M239.46,154.38H227.57a.56.56,0,0,1,0-1.11h11.89a.56.56,0,0,1,0,1.11Z" fill="#d1d3d4"></path><path d="M234.8,135.08l-.17,0-9.55-3.18a.55.55,0,0,1,.35-1.05L235,134a.55.55,0,0,1-.18,1.07Z" fill="#d1d3d4"></path><path d="M195.82,130.43a.55.55,0,0,1-.52-.38.55.55,0,0,1,.35-.7l9.19-2.93a.54.54,0,0,1,.69.35.56.56,0,0,1-.36.7L196,130.41Z" fill="#d1d3d4"></path><path d="M172,154.43a.56.56,0,0,1-.45-.23l-3.75-5.27a.56.56,0,0,1,.13-.77.55.55,0,0,1,.77.13l3.75,5.27a.55.55,0,0,1-.45.87Z" fill="#d1d3d4"></path><path d="M200.41,160.55a.55.55,0,0,1-.54-.48.54.54,0,0,1,.47-.62L211.22,158a.56.56,0,0,1,.62.48.55.55,0,0,1-.47.62l-10.88,1.47Z" fill="#d1d3d4"></path><path d="M248.19,145.36a.44.44,0,0,1-.16,0l-8.74-2.77a.56.56,0,0,1,.33-1.06l8.74,2.77a.57.57,0,0,1,.36.7A.56.56,0,0,1,248.19,145.36Z" fill="#d1d3d4"></path><path d="M192.33,138.51a.68.68,0,0,1-.23,0c-.82-.38-5-2.34-5.75-3.65a.55.55,0,0,1,.19-.75.54.54,0,0,1,.76.19c.47.78,3.48,2.38,5.27,3.21a.56.56,0,0,1,.27.73A.57.57,0,0,1,192.33,138.51Z" fill="#d1d3d4"></path><path d="M192.34,235.33h0a.5.5,0,0,1-.5-.5.51.51,0,0,1,.5-.5h0a15.32,15.32,0,0,0,2-.53c4.24-1.27,14.18-4.25,25.86-2.49a.5.5,0,0,1,.42.57.51.51,0,0,1-.57.42c-11.47-1.73-21.25,1.2-25.43,2.46A11.33,11.33,0,0,1,192.34,235.33Z" fill="#231f20"></path><path d="M261.91,233.22l-.18,0a.56.56,0,0,1-.34-.71c.77-2.24,3.16-3.11,5.27-3.87l1.17-.44c3.59-1.42,6.53-4.28,9.37-7.05,3.49-3.39,7.1-6.9,11.95-7.8a.55.55,0,0,1,.2,1.08c-4.52.84-7.85,4.08-11.38,7.51-2.92,2.85-5.94,5.78-9.73,7.29l-1.21.45c-2,.71-4,1.44-4.59,3.19A.56.56,0,0,1,261.91,233.22Z" fill="#d1d3d4"></path><path d="M146.82,220.24h-.13a30.85,30.85,0,0,1-13.41-7,.55.55,0,1,1,.74-.82A29.62,29.62,0,0,0,147,219.15a.55.55,0,0,1-.13,1.09Z" fill="#d1d3d4"></path><path d="M178.9,105.77c-32.43,0-63.76-18.85-64.08-19a.54.54,0,0,1-.19-.76.55.55,0,0,1,.76-.18c.33.2,33.46,20.14,66.64,18.83a.57.57,0,0,1,.58.53.56.56,0,0,1-.54.57C181,105.75,180,105.77,178.9,105.77Z" fill="#d1d3d4"></path><path d="M124.34,136.8a.56.56,0,0,1-.55-.47.55.55,0,0,1,.46-.63c.19,0,18.8-3,26.54-9.19a.55.55,0,0,1,.69.86c-8,6.41-26.28,9.3-27.06,9.42Z" fill="#d1d3d4"></path></g></svg>