<svg xmlns="http://www.w3.org/2000/svg" xmlns:xlink="http://www.w3.org/1999/xlink" viewBox="0 0 400 300" width="406" height="306" class="illustration styles_illustrationTablet__1DWOa"><defs><linearGradient id="linear-gradient" x1="332.2" y1="205.27" x2="314.75" y2="224.41" gradientUnits="userSpaceOnUse"><stop offset="0" stop-color="#d4a397"></stop><stop offset="1" stop-color="#fff"></stop></linearGradient><linearGradient id="linear-gradient-2" x1="234.86" y1="246.23" x2="212.96" y2="258.11" gradientTransform="matrix(-1, 0, 0, 1, 418.8, 0)" gradientUnits="userSpaceOnUse"><stop offset="0" stop-color="#7f3500"></stop><stop offset="0.04" stop-color="#843d0a"></stop><stop offset="1" stop-color="#fff"></stop></linearGradient></defs><title>cc</title><g style="isolation: isolate;"><g id="Layer_2" data-name="Layer 2"><path d="M168,76.74l-156.5,91a10,10,0,0,0,.14,17.32L203.19,292.3a15.78,15.78,0,0,0,15.18.13l147.19-79.16a12,12,0,0,0,.37-20.92Z" fill="#dedede"></path><path d="M184.83,148.52l-18.57,8.94A4.27,4.27,0,0,0,166,165l44,25.67a4.27,4.27,0,0,0,5.75-1.38l10.69-16.63" fill="#56403d"></path><path d="M285.86,105.51,137.75,20.19a6.68,6.68,0,0,0-10,5.79v88.76a5.55,5.55,0,0,0,2.78,4.81l157.86,91.12a3.58,3.58,0,0,0,5.37-3.1V119.17A15.77,15.77,0,0,0,285.86,105.51Z" fill="#68e1fd"></path><path d="M137.77,26.9l143.59,82.62a10.07,10.07,0,0,1,5,8.73v66.54a3.64,3.64,0,0,1-5.44,3.15l-146.45-84a3.58,3.58,0,0,1-1.8-3.11v-71A3.37,3.37,0,0,1,137.77,26.9Z" fill="#fff"></path><path d="M205.6,281.82a3.18,3.18,0,0,1,1.79-2.37l5.75-3.32L222,271l10.61-6.15,11.29-6.54L254.84,252l9.49-5.5,7-4.06L275,240.3c0,.08.13.08.21.06a2.63,2.63,0,0,1,3.21,3.2,8.37,8.37,0,0,1-3.17,4.15,127.51,127.51,0,0,1-13.42,8.42v-1.66c3.12-1.71,9.86-5.58,12.69-8.49l-1.35.79-3.71,2.17-5.59,3.27-7,4.08-7.88,4.6-8.29,4.84-8.21,4.8L224.89,275l-6.59,3.85-5,3c-1.54.9-3.21,2.12-5,2.47A2.47,2.47,0,0,1,205.6,281.82Z" fill="#68e1fd"></path><ellipse cx="197.52" cy="148.88" rx="3.12" ry="3.57" transform="translate(-24.6 40.05) rotate(-10.9)" fill="#ab643c"></ellipse><path d="M240.28,114.79,268.12,131a1.71,1.71,0,0,1,.85,1.48h0A1.71,1.71,0,0,1,266.4,134l-27.84-16.14a1.71,1.71,0,0,1-.85-1.48v-.1A1.71,1.71,0,0,1,240.28,114.79Z" fill="#76cc23"></path><path d="M240.28,123.57l27.84,16.24a1.71,1.71,0,0,1,.85,1.48h0a1.71,1.71,0,0,1-2.57,1.48l-27.84-16.14a1.71,1.71,0,0,1-.85-1.48V125A1.71,1.71,0,0,1,240.28,123.57Z" fill="#76cc23"></path><path d="M240.28,132.35l27.84,16.24a1.71,1.71,0,0,1,.85,1.48h0a1.71,1.71,0,0,1-2.57,1.48L238.56,135.4a1.71,1.71,0,0,1-.85-1.48v-.1A1.71,1.71,0,0,1,240.28,132.35Z" fill="#76cc23"></path><path d="M240.28,141.13l27.84,16.24a1.71,1.71,0,0,1,.85,1.48h0a1.71,1.71,0,0,1-2.57,1.48l-27.84-16.14a1.71,1.71,0,0,1-.85-1.48v-.1A1.71,1.71,0,0,1,240.28,141.13Z" fill="#76cc23"></path><ellipse cx="280.5" cy="114.11" rx="1.57" ry="1.7" fill="#155a93"></ellipse><ellipse cx="275.52" cy="111.55" rx="1.57" ry="1.7" fill="#659fe4"></ellipse><ellipse cx="270.53" cy="109.08" rx="1.7" ry="1.57" fill="#c5e9ff"></ellipse><path d="M320.38,203.58,303,213.89s5.39,9.45,18.67,15L341.92,218" fill="url(#linear-gradient)" style="mix-blend-mode: multiply;"></path><ellipse cx="334.89" cy="207.48" rx="16.13" ry="11.36" fill="#68e1fd"></ellipse><ellipse cx="334.88" cy="200.77" rx="12.08" ry="4.95" fill="#974c26"></ellipse><path d="M334.44,192.52c0-2.23-.08-4.46-.25-6.69q-.07-.87-.16-1.73L333.9,183c-.05-.33-.18-1.19-.17-1.16q-.11-.68-.24-1.36a53.27,53.27,0,0,0-8.63-21.1,30.85,30.85,0,0,0-2.4,12.35c0,1.23.1,2.45.2,3.67,0,.33,0,.47,0,.52s0-.07.05.21c.1.6.21,1.2.33,1.8a48.76,48.76,0,0,0,1.91,6.7,40.71,40.71,0,0,0,2.61,5.84c1.09,2.11,2.29,4.16,3.57,6.16,1,1.57,1.95,3,2.9,4.3C334.3,198.1,334.43,195.31,334.44,192.52Zm-6.35-25.08a2,2,0,0,0-.06-.87h0q.47.47.91,1A2.77,2.77,0,0,0,328.09,167.43Z" fill="#999a1c"></path><path d="M338.6,194.24c1.21-1.88,2.35-3.8,3.4-5.77q.41-.77.8-1.54l.51-1,.48-1.07q.27-.63.53-1.27a53.27,53.27,0,0,0,4.15-22.41,30.85,30.85,0,0,0-8.7,9.1c-.65,1-1.24,2.11-1.81,3.19l-.25.46s0-.06-.07.2c-.24.56-.47,1.12-.69,1.69a48.76,48.76,0,0,0-2,6.67,40.71,40.71,0,0,0-1,6.32c-.22,2.37-.32,4.74-.33,7.12,0,1.86,0,3.55.12,5.19C335.46,198.87,337.09,196.59,338.6,194.24Zm8.22-24.53a2,2,0,0,0,.42-.76h0q.14.65.24,1.31A2.77,2.77,0,0,0,346.82,169.71Z" fill="#999a1c"></path><path d="M338.51,199.8q1.89-.93,3.7-2l.93-.57.61-.39.6-.42.7-.51a33.5,33.5,0,0,0,9.47-10.76,19.4,19.4,0,0,0-7.63,2.1c-.69.35-1.35.74-2,1.14l-.28.17s0,0-.1.09l-.92.69a30.67,30.67,0,0,0-3.24,2.95,25.61,25.61,0,0,0-2.56,3.1c-.88,1.21-1.7,2.46-2.47,3.74-.6,1-1.13,1.93-1.61,2.84C335.33,201.29,336.93,200.58,338.51,199.8Zm12.36-10.59a1.26,1.26,0,0,0,.47-.27h0q-.14.39-.29.78A1.74,1.74,0,0,0,350.87,189.22Z" fill="#999a1c"></path><path d="M334.44,192.52c0-2.23-.08-4.46-.25-6.69q-.07-.87-.16-1.73L333.9,183c-.05-.33-.18-1.19-.17-1.16q-.11-.68-.24-1.36a53.27,53.27,0,0,0-8.63-21.1,30.85,30.85,0,0,0-2.4,12.35c0,1.23.1,2.45.2,3.67,0,.33,0,.47,0,.52s0-.07.05.21c.1.6.21,1.2.33,1.8a48.76,48.76,0,0,0,1.91,6.7,40.71,40.71,0,0,0,2.61,5.84c1.09,2.11,2.29,4.16,3.57,6.16,1,1.57,1.95,3,2.9,4.3C334.3,198.1,334.43,195.31,334.44,192.52Zm-6.35-25.08a2,2,0,0,0-.06-.87h0q.47.47.91,1A2.77,2.77,0,0,0,328.09,167.43Z" fill="#999a1c"></path><path d="M338.6,194.24c1.21-1.88,2.35-3.8,3.4-5.77q.41-.77.8-1.54l.51-1,.48-1.07q.27-.63.53-1.27a53.27,53.27,0,0,0,4.15-22.41,30.85,30.85,0,0,0-8.7,9.1c-.65,1-1.24,2.11-1.81,3.19l-.25.46s0-.06-.07.2c-.24.56-.47,1.12-.69,1.69a48.76,48.76,0,0,0-2,6.67,40.71,40.71,0,0,0-1,6.32c-.22,2.37-.32,4.74-.33,7.12,0,1.86,0,3.55.12,5.19C335.46,198.87,337.09,196.59,338.6,194.24Zm8.22-24.53a2,2,0,0,0,.42-.76h0q.14.65.24,1.31A2.77,2.77,0,0,0,346.82,169.71Z" fill="#999a1c"></path><path d="M338.51,199.8q1.89-.93,3.7-2l.93-.57.61-.39.6-.42.7-.51a33.5,33.5,0,0,0,9.47-10.76,19.4,19.4,0,0,0-7.63,2.1c-.69.35-1.35.74-2,1.14l-.28.17s0,0-.1.09l-.92.69a30.67,30.67,0,0,0-3.24,2.95,25.61,25.61,0,0,0-2.56,3.1c-.88,1.21-1.7,2.46-2.47,3.74-.6,1-1.13,1.93-1.61,2.84C335.33,201.29,336.93,200.58,338.51,199.8Zm12.36-10.59a1.26,1.26,0,0,0,.47-.27h0q-.14.39-.29.78A1.74,1.74,0,0,0,350.87,189.22Z" fill="#999a1c"></path><path d="M146.66,51V95.95l36.62,21a2.67,2.67,0,0,0,1.56.34V73.17Z" fill="#fff" stroke="#39b54a" stroke-miterlimit="10"></path><ellipse cx="213.36" cy="113.25" rx="12.67" ry="21" transform="translate(-17.57 42.4) rotate(-10.9)" fill="#76cc23"></ellipse><polygon points="204.73 113.53 207.22 110.06 211.23 116.53 219.41 105.35 221.31 109.83 210.88 123.15 204.73 113.53" fill="#fff"></polygon><path d="M172.34,76.46c.29.16,4.66,12.75,4.89,13.41l-4.8,1.27-1.82-7-.26,16.24-11.12-6.18.25-15.39L157.94,83l-4.76-4.45L156.49,71l1.15-2.7L162.44,71c0,.17.29,3.41,2.66,4.73s2.34-1.78,2.34-1.95Z" fill="#56403d"></path><path d="M62.51,82c-13.44.93-12.74,22.67-13.65,31.7-.23,2.27,3.27,3,3.5.74.76-7.52.26-17.7,4.43-24.32,1.29-2,2.83-4,5.47-4.23a5.89,5.89,0,0,1,4.38,1.73c1.18,1.06,1.8,5.27,2,6.52a53.43,53.43,0,0,1,.24,14.07c-.24,2.27,3.25,3,3.5.74C73.12,101.8,74.49,81.13,62.51,82Z" fill="#f9a43e"></path><polyline points="82.62 96.55 86.66 103.29 94.75 104.98 88.68 125.87 71.5 114.75" fill="#8d57c1"></polyline><polygon points="41.17 119.47 82.62 96.55 81.27 130.59 49.59 133.62 41.17 119.47" fill="#64359b"></polygon><polygon points="56 124.52 62.4 188.88 101.15 165.63 94.75 104.98 56 124.52" fill="#8d57c1"></polygon><polygon points="56 124.52 51.62 119.47 41.17 119.47 36.79 175.74 48.04 180.92 62.4 188.88 56 124.52" fill="#7141aa"></polygon><path d="M79.81,92.72c-13.48.12-14.08,21.87-15.52,30.83-.36,2.25,3.08,3.22,3.44.95,1.21-7.46,1.31-17.65,5.88-24,1.87-2.6,5.15-4.8,8.38-3.09,2.89,1.53,2.93,4.95,3.22,7.81a53.43,53.43,0,0,1-.61,14.06c-.37,2.25,3.07,3.22,3.44.95C89.22,113.16,91.82,92.61,79.81,92.72Z" fill="#f9a43e"></path><path d="M139,235.26l13.75-8.52,64.6,21.89s-18,9.93-28.22,16.11C182.46,261.05,152.7,241.41,139,235.26Z" opacity="0.21" fill="url(#linear-gradient-2)" style="mix-blend-mode: multiply;"></path><path d="M169.94,120.57s3.23-2.71,3.74-4.21,1.1-3.59,2-3.28-.18,3.28-.18,3.28,4-3.12,4.84-2.51-2.46,2.93-2.46,2.93,4.71-2.83,5.31-1.72-4.26,3.33-4.26,3.33,4.27-2.09,4.1-.73c-.1.85-4.51,2.91-4.51,2.91s3.46.36,2.39,1.06-3.9.6-3.9.6-4.85,3.22-8.89,3.58" fill="#eead97"></path><path d="M184.64,131.84c.9-.11,6.49-2.74,7.09-3.59s2.23-6.31,3.41-5.93-1.28,5.37-.6,5.47,8.24,0,8.6.9-3.75,1.1-3.75,1.1,5.11-.39,4.41,1-5.81,1.09-5.81,1.09,5.21,1.05,4.41,2.05-5.69-.6-5.69-.6,3.66,2.56,2.39,3.1-5.09-2.13-5.49-2.06-9,3.95-9,3.95" fill="#eead97"></path><path d="M165,233.55a.91.91,0,0,0,.92.83c.84.07,8.76-3.34,10.69,1.28a1.31,1.31,0,0,1-.52,1.6,31.35,31.35,0,0,1-13,4.73,7.33,7.33,0,0,1-4.69-.6l.37-8.71Z" fill="#c24327"></path><path d="M145.91,229.53s7.4-4.83,8.7-1.76c1,2.36-7.86,9.25-11.11,9.79s-3.7-2.88-3.7-2.88l.11-5.61" fill="#c24327"></path><path d="M160.41,159.2s7.42,16,7.29,73.69c0,0-1.51,4-12.23,1.25l-4.35-51.54-1.88,47.56s-5,3.74-12.86-.75c0,0,1.75-63.63,6-75" fill="#8cc63f"></path><path d="M144.09,125.3s15.16-2.22,21.21-5l6-2.76s3.41,3.92,2.74,8-18.82,10.12-27.39,10.14" fill="#aa2e1a"></path><path d="M142.06,156.29c-1.86-7.85-5.68-28.15-1.58-31.24,3.57-2.69,11.89.23,18.24,4.52,5.21,3.52,3.08,24,2.18,31.14C154,161.56,147.56,160.36,142.06,156.29Z" fill="#c24327"></path><path d="M158.72,129.57s15.2,1.92,21.77.88l6.56-1s2.23,4.69.48,8.48-20.84,4.7-29.11,2.42" fill="#c24327"></path><path d="M157.64,113.57s.18,10.43-2.73,10.69a5.36,5.36,0,0,1-5.7-3" fill="#eead97"></path><path d="M153.43,123v5s-2.66,1-6.39-1.46v-4" fill="#eead97"></path><path d="M157.12,115.5s3.55-3.68,1.23-6.82-4.91-1.5-4.91-1.5-.55-1.36-3.27-1.64-3.82,2.46-4.91,3.14-2.87,2.69-3,4.35,2.32,10.94,5.19,11.62S154,126.42,157.12,115.5Z" fill="#c24327"></path></g></g></svg>